<?xml version="1.0" encoding="UTF-8"?>
<svg width="512px" height="512px" viewBox="0 0 512 512" version="1.1" xmlns="http://www.w3.org/2000/svg" xmlns:xlink="http://www.w3.org/1999/xlink">
    <!-- Generator: Sketch 58 (84663) - https://sketch.com -->
    <title>DX@Scale logo</title>
    <desc>Created with Sketch.</desc>
    <g id="DX@Scale-logo" stroke="none" stroke-width="1" fill="none" fill-rule="evenodd">
        <g id="DX@SCALE-logo" transform="translate(106.000000, 152.000000)" fill="#000000" fill-rule="nonzero">
            <path d="M137.079,0 C165.33,0 190.545,16.2141807 202.248,40.2894274 C211.857,35.1639187 222.684,32.4342192 233.877,32.4342192 C270.336,32.4342192 300,61.391879 300,96.9863403 C300,132.580802 270.339,161.538462 233.877,161.538462 L33.846,161.538462 C15.183,161.538462 0,146.71549 0,128.497968 C0,113.039434 10.929,100.026499 25.638,96.4386431 C32.202,80.4206962 47.382,68.9483432 65.085,66.8893532 C66.951,29.6986619 98.529,0 137.079,0 Z M110.861385,128.648769 L100.125538,128.648769 L100.125538,139.384615 L110.861385,139.384615 L110.861385,128.648769 Z M185.353692,96.786 L174.429077,96.786 L174.429077,128.524154 L142.755077,128.524154 L142.755077,139.384615 L185.384615,139.384615 L185.353692,96.786 Z M121.674308,96.6770769 L110.813846,96.6770769 L110.813846,128.554615 L142.692308,128.523231 L142.692308,117.599077 L121.674769,117.599077 L121.674308,96.6770769 Z M142.504,96.63 L131.768154,96.63 L131.768154,107.553692 L142.504,107.553692 L142.504,96.63 Z M174.570769,64.83 L142.692308,64.8613846 L142.692308,75.7855385 L163.709385,75.7855385 L163.710308,96.708 L174.570769,96.708 L174.570769,64.83 Z M153.428615,85.8936923 L142.692308,85.8936923 L142.692308,96.63 L153.428615,96.63 L153.428615,85.8936923 Z M142.629538,54 L100,54 L100.031385,96.5981538 L110.955538,96.5981538 L110.955538,64.86 L142.629538,64.86 L142.629538,54 Z M185.26,54 L174.523692,54 L174.523692,64.7358462 L185.26,64.7358462 L185.26,54 Z" id="Combined-Shape"></path>
            <path d="M118.369591,179 C120.348568,179 122.177426,179.28906 123.85622,179.867188 C125.535014,180.445315 126.996989,181.268024 128.242188,182.335337 C129.46515,183.40265 130.421271,184.681182 131.110577,186.170974 C131.799883,187.660765 132.144531,189.317299 132.144531,191.140625 C132.144531,192.808302 131.938854,194.220247 131.527494,195.376502 C131.116134,196.532758 130.576926,197.477761 129.909856,198.211538 C129.220549,198.945316 128.442312,199.478965 127.57512,199.8125 C126.707928,200.146035 125.829632,200.3128 124.940204,200.3128 C123.472649,200.3128 122.349764,200.079329 121.571514,199.61238 C120.793265,199.14543 120.281852,198.467252 120.03726,197.577825 C119.592546,198.467252 119.003309,199.156548 118.269531,199.645733 C117.535754,200.134918 116.635222,200.379507 115.567909,200.379507 C113.922468,200.379507 112.605023,199.829182 111.615535,198.728516 C110.626047,197.627849 110.13131,196.110286 110.13131,194.175781 C110.13131,192.99729 110.303634,191.924434 110.648287,190.957181 C110.99294,189.989929 111.465442,189.161662 112.065805,188.472356 C112.666169,187.805285 113.366583,187.282754 114.167067,186.904748 C114.967552,186.526741 115.823613,186.33774 116.735276,186.33774 C117.780354,186.33774 118.586385,186.5323 119.153395,186.921424 C119.720405,187.310549 120.126201,187.78305 120.370793,188.338942 L120.604267,186.604567 L125.507212,186.604567 L124.373197,195.710036 C124.284254,196.421578 124.356519,196.966344 124.589994,197.344351 C124.823469,197.722358 125.240382,197.911358 125.840745,197.911358 C126.307695,197.911358 126.757961,197.783505 127.191556,197.527794 C127.625152,197.272084 128.008712,196.866289 128.342248,196.310397 C128.675783,195.77674 128.948166,195.076326 129.159405,194.209135 C129.370644,193.341943 129.476262,192.296881 129.476262,191.073918 C129.476262,189.628599 129.214997,188.305595 128.692458,187.104868 C128.169919,185.904141 127.430594,184.870197 126.474459,184.003005 C125.518325,183.158049 124.362086,182.502106 123.005709,182.035156 C121.649332,181.568207 120.12621,181.334736 118.436298,181.334736 C116.72415,181.334736 115.117646,181.623795 113.616737,182.201923 C112.115828,182.780051 110.820618,183.602759 109.73107,184.670072 C108.619285,185.759621 107.746548,187.065948 107.112831,188.589093 C106.479113,190.112237 106.16226,191.818801 106.16226,193.708834 C106.16226,195.287568 106.406849,196.766219 106.896034,198.144832 C107.385219,199.523444 108.118985,200.724154 109.097356,201.746995 C110.075726,202.769837 111.298671,203.564751 112.766226,204.131761 C114.233781,204.698771 115.934786,204.982272 117.869291,204.982272 C119.826031,204.982272 121.532595,204.693212 122.989032,204.115084 C124.44547,203.536956 125.59615,202.84766 126.441106,202.047175 L129.476262,202.047175 C128.92037,202.84766 128.236633,203.570309 127.42503,204.215144 C126.613427,204.859979 125.707337,205.415863 124.706731,205.882812 C123.706125,206.349762 122.616592,206.705528 121.438101,206.95012 C120.259609,207.194713 119.025547,207.317007 117.735877,207.317007 C115.490073,207.317007 113.472214,206.961242 111.682242,206.2497 C109.892269,205.538158 108.385823,204.57092 107.162861,203.347957 C105.917662,202.102758 104.967101,200.651901 104.311148,198.995343 C103.655195,197.338784 103.327224,195.565514 103.327224,193.675481 C103.327224,191.474148 103.744136,189.467407 104.577975,187.655198 C105.411813,185.84299 106.518022,184.292074 107.896635,183.002404 C109.275247,181.73497 110.870634,180.751055 112.682843,180.050631 C114.495051,179.350207 116.390615,179 118.369591,179 Z M117.702524,190.206731 C116.946511,190.206731 116.32948,190.551379 115.851412,191.240685 C115.373345,191.929991 115.134315,192.841641 115.134315,193.975661 C115.134315,194.687203 115.306639,195.27644 115.651292,195.743389 C115.995945,196.210339 116.5018,196.44381 117.16887,196.44381 C117.902648,196.44381 118.530797,196.088044 119.053335,195.376502 C119.575874,194.66496 119.837139,193.731075 119.837139,192.57482 C119.837139,191.841042 119.659257,191.262923 119.303486,190.840445 C118.947715,190.417967 118.414066,190.206731 117.702524,190.206731 Z" id="@"></path>
            <path d="M66.4384014,200.11268 C68.4840847,200.11268 69.9738535,199.573473 70.9077524,198.495042 C71.6548715,197.632297 72.1031385,196.403124 72.2525605,194.807498 L72.3085937,193.27524 C72.3085937,190.984965 71.8416513,189.333989 70.9077524,188.322266 C69.9738535,187.310542 68.4618494,186.804688 66.3716947,186.804688 L64.8707933,186.804688 L64.8707933,200.11268 L66.4384014,200.11268 Z M58,181.534856 L66.671875,181.534856 C70.8966557,181.534856 74.0818703,182.552123 76.2276142,184.586689 C78.0668232,186.330602 79.117788,188.683015 79.3805288,191.643983 L79.4462139,193.442007 C79.4462139,195.309805 79.1738308,196.977457 78.6290565,198.445012 C78.0842821,199.912567 77.2782505,201.157747 76.2109375,202.180589 C75.1213888,203.225666 73.7761498,204.02058 72.1751803,204.565355 C70.5742107,205.110129 68.7286763,205.382512 66.6385216,205.382512 L58,205.382512 L58,181.534856 Z M86.2947716,193.108474 L79.4906851,181.534856 L87.2620192,181.534856 L90.9975962,188.639123 L94.6664663,181.534856 L101.670673,181.534856 L95.2668269,192.875 L102.637921,205.382512 L94.8332332,205.382512 L90.3972356,197.177584 L85.961238,205.382512 L78.9236779,205.382512 L86.2947716,193.108474 Z M144.563101,205.782752 C141.205512,205.782752 138.681799,205.104574 136.991887,203.748197 C135.301975,202.39182 134.401443,200.412874 134.290264,197.811298 L140.794171,197.811298 C140.838642,198.233776 140.927583,198.634013 141.060998,199.012019 C141.194412,199.390026 141.405648,199.712439 141.694712,199.979267 C141.96154,200.268331 142.328423,200.496243 142.795373,200.663011 C143.262322,200.829778 143.851559,200.913161 144.563101,200.913161 C145.563707,200.913161 146.325268,200.696366 146.847806,200.26277 C147.370345,199.829175 147.631611,199.256614 147.631611,198.545072 C147.631611,198.189301 147.570463,197.883565 147.448167,197.627855 C147.325871,197.372144 147.120194,197.155349 146.83113,196.977464 C146.542066,196.821814 146.152947,196.688402 145.663762,196.577224 L143.86268,196.24369 L143.86268,196.24369 C142.172768,196.043569 140.755264,195.760068 139.610126,195.393179 C138.464988,195.02629 137.54778,194.542671 136.858474,193.942308 C136.146932,193.341944 135.635518,192.608177 135.324219,191.740986 C135.012919,190.873794 134.857272,189.83985 134.857272,188.639123 C134.857272,187.57181 135.068508,186.582336 135.490986,185.670673 C135.913464,184.75901 136.524936,183.969655 137.325421,183.302584 C138.125905,182.635513 139.098702,182.118541 140.24384,181.751653 C141.388978,181.384764 142.67307,181.201322 144.096154,181.201322 C146.986793,181.201322 149.221446,181.807236 150.80018,183.019081 C152.378914,184.230926 153.279446,186.104254 153.501803,188.639123 L147.164663,188.639123 C147.053485,187.794166 146.747749,187.1549 146.247446,186.721304 C145.747143,186.287708 145.030053,186.070913 144.096154,186.070913 C143.162255,186.070913 142.4674,186.259914 142.011569,186.637921 C141.555737,187.015927 141.327825,187.505105 141.327825,188.105469 C141.327825,188.439004 141.383413,188.728064 141.494591,188.972656 C141.60577,189.217249 141.805888,189.428485 142.094952,189.60637 C142.36178,189.806491 142.734222,189.973257 143.21229,190.106671 L144.338891,190.34385 L144.338891,190.34385 L145.030048,190.440204 C146.542075,190.61809 147.865078,190.85712 148.999099,191.157302 C150.133119,191.457483 151.089239,191.885514 151.867488,192.441406 C152.623501,193.019534 153.196062,193.742183 153.585186,194.609375 C153.974311,195.476567 154.16887,196.554982 154.16887,197.844651 C154.16887,198.9342 153.957634,199.962585 153.535156,200.929838 C153.112678,201.89709 152.490088,202.736475 151.667368,203.448017 C150.844647,204.159559 149.838498,204.72656 148.648888,205.149038 C147.459279,205.571517 146.097363,205.782752 144.563101,205.782752 Z M168.321815,205.782752 C166.23166,205.782752 164.408361,205.493693 162.851863,204.915565 C161.295365,204.337437 160.005714,203.514729 158.982873,202.447416 C157.937795,201.380103 157.159558,200.096011 156.648137,198.595102 C156.30719,197.594496 156.079893,196.522253 155.966245,195.378358 L155.88101,193.341947 C155.88101,191.518621 156.186746,189.856528 156.798227,188.355619 C157.409709,186.85471 158.260211,185.570618 159.34976,184.503305 C160.439308,183.435992 161.728959,182.613284 163.21875,182.035156 C164.708541,181.457028 166.320604,181.167969 168.054988,181.167969 C169.611486,181.167969 171.034549,181.35141 172.324219,181.718299 C173.613889,182.085188 174.747892,182.635513 175.726262,183.369291 C176.682397,184.125304 177.455075,185.081425 178.044321,186.23768 C178.633567,187.393936 178.994891,188.76141 179.128305,190.340144 L172.090745,190.340144 C171.957331,189.117181 171.557095,188.183296 170.890024,187.538462 C170.222953,186.893627 169.289069,186.571214 168.088341,186.571214 C166.554079,186.571214 165.336693,187.149333 164.436148,188.305589 C163.715712,189.230594 163.283454,190.482892 163.139369,192.062508 L163.085337,193.575421 C163.085337,195.732282 163.524485,197.394375 164.402794,198.561749 C165.281104,199.729122 166.542961,200.3128 168.188401,200.3128 C169.389129,200.3128 170.384161,199.995947 171.173528,199.36223 C171.962895,198.728512 172.446514,197.744598 172.624399,196.410457 L179.428486,196.410457 C179.317307,197.944719 178.961541,199.301076 178.361178,200.479567 C177.760814,201.658059 176.982577,202.636414 176.026442,203.414663 C175.048072,204.192913 173.902951,204.782149 172.591046,205.182392 C171.27914,205.582634 169.856077,205.782752 168.321815,205.782752 Z M187.411058,181.534856 L196.2497,181.534856 L203.820913,205.382512 L196.583233,205.382512 L195.315805,200.946514 L187.411058,200.946514 L186.14363,205.382512 L179.773137,205.382512 L187.411058,181.534856 Z M188.745192,196.24369 L193.981671,196.24369 L191.380108,187.071514 L188.745192,196.24369 Z M206.266827,181.534856 L213.13762,181.534856 L213.13762,200.079327 L222.143029,200.079327 L222.143029,205.382512 L206.266827,205.382512 L206.266827,181.534856 Z M225.15595,181.534856 L241.632512,181.534856 L241.632512,186.804688 L231.960036,186.804688 L231.960036,190.907151 L239.664663,190.907151 L239.664663,195.776743 L231.960036,195.776743 L231.960036,200.11268 L242.166166,200.11268 L242.166166,205.382512 L225.15595,205.382512 L225.15595,181.534856 Z" id="SCALE"></path>
        </g>
    </g>
</svg>